<mxfile compressed="false" host="app.diagrams.net" modified="2022-06-28T12:56:08.439Z" agent="5.0 (Windows NT 10.0; Win64; x64) AppleWebKit/537.36 (KHTML, like Gecko) Chrome/102.0.0.0 Safari/537.36" etag="RrdnaqDgZ9CysOM7C6E3" version="20.0.3" type="device">
  <diagram id="C5RBs43oDa-KdzZeNtuy" name="Page-1">
    <mxGraphModel dx="1306" dy="636" grid="1" gridSize="10" guides="1" tooltips="1" connect="1" arrows="1" fold="1" page="1" pageScale="1" pageWidth="1654" pageHeight="1169" math="0" shadow="0">
      <root>
        <mxCell id="WIyWlLk6GJQsqaUBKTNV-0" />
        <mxCell id="WIyWlLk6GJQsqaUBKTNV-1" parent="WIyWlLk6GJQsqaUBKTNV-0" />
        <mxCell id="bcarhAzKGb76M7BZtldy-30" value="String" style="rounded=0;fontFamily=Helvetica;fontSize=11;fontColor=#ffffff;fillColor=#0050ef;strokeColor=#001DBC;" parent="WIyWlLk6GJQsqaUBKTNV-1" vertex="1">
          <mxGeometry x="640" y="400" width="150" height="30" as="geometry" />
        </mxCell>
        <mxCell id="bcarhAzKGb76M7BZtldy-31" value="List" style="rounded=0;fontFamily=Helvetica;fontSize=11;fontColor=#ffffff;fillColor=#60a917;strokeColor=#2D7600;" parent="WIyWlLk6GJQsqaUBKTNV-1" vertex="1">
          <mxGeometry x="1030" y="840" width="150" height="30" as="geometry" />
        </mxCell>
        <mxCell id="bcarhAzKGb76M7BZtldy-46" value="Collection" style="rounded=0;fontFamily=Helvetica;fontSize=11;fontColor=#ffffff;fillColor=#60a917;strokeColor=#2D7600;" parent="WIyWlLk6GJQsqaUBKTNV-1" vertex="1">
          <mxGeometry x="1130" y="910" width="150" height="30" as="geometry" />
        </mxCell>
        <mxCell id="bcarhAzKGb76M7BZtldy-48" value="Iterable" style="rounded=0;fontFamily=Helvetica;fontSize=11;fontColor=#ffffff;fillColor=#60a917;strokeColor=#2D7600;" parent="WIyWlLk6GJQsqaUBKTNV-1" vertex="1">
          <mxGeometry x="1360" y="910" width="150" height="30" as="geometry" />
        </mxCell>
        <mxCell id="bcarhAzKGb76M7BZtldy-50" value="ArrayList" style="rounded=0;fontFamily=Helvetica;fontSize=11;fontColor=#ffffff;fillColor=#0050ef;strokeColor=#001DBC;" parent="WIyWlLk6GJQsqaUBKTNV-1" vertex="1">
          <mxGeometry x="1130" y="720" width="150" height="30" as="geometry" />
        </mxCell>
        <mxCell id="bcarhAzKGb76M7BZtldy-51" value="LinkedList" style="rounded=0;fontFamily=Helvetica;fontSize=11;fontColor=#ffffff;fillColor=#0050ef;strokeColor=#001DBC;" parent="WIyWlLk6GJQsqaUBKTNV-1" vertex="1">
          <mxGeometry x="720" y="777.5" width="150" height="30" as="geometry" />
        </mxCell>
        <mxCell id="bcarhAzKGb76M7BZtldy-53" value="RandomAccess" style="rounded=0;fontFamily=Helvetica;fontSize=11;fontColor=#ffffff;fillColor=#60a917;strokeColor=#2D7600;" parent="WIyWlLk6GJQsqaUBKTNV-1" vertex="1">
          <mxGeometry x="1130" y="660" width="150" height="30" as="geometry" />
        </mxCell>
        <mxCell id="bcarhAzKGb76M7BZtldy-55" value="Deque" style="rounded=0;fontFamily=Helvetica;fontSize=11;fontColor=#ffffff;fillColor=#60a917;strokeColor=#2D7600;" parent="WIyWlLk6GJQsqaUBKTNV-1" vertex="1">
          <mxGeometry x="720" y="910" width="150" height="30" as="geometry" />
        </mxCell>
        <mxCell id="bcarhAzKGb76M7BZtldy-62" value="Queue" style="rounded=0;fontFamily=Helvetica;fontSize=11;fontColor=#ffffff;fillColor=#60a917;strokeColor=#2D7600;" parent="WIyWlLk6GJQsqaUBKTNV-1" vertex="1">
          <mxGeometry x="920" y="910" width="150" height="30" as="geometry" />
        </mxCell>
        <mxCell id="bcarhAzKGb76M7BZtldy-66" value="AbstractSequentialList" style="rounded=0;fontFamily=Helvetica;fontSize=11;fontColor=#ffffff;fillColor=#d80073;strokeColor=#A50040;" parent="WIyWlLk6GJQsqaUBKTNV-1" vertex="1">
          <mxGeometry x="920" y="777.5" width="150" height="30" as="geometry" />
        </mxCell>
        <mxCell id="bcarhAzKGb76M7BZtldy-67" value="AbstractList" style="rounded=0;fontFamily=Helvetica;fontSize=11;fontColor=#ffffff;fillColor=#d80073;strokeColor=#A50040;" parent="WIyWlLk6GJQsqaUBKTNV-1" vertex="1">
          <mxGeometry x="1130" y="780" width="150" height="30" as="geometry" />
        </mxCell>
        <mxCell id="bcarhAzKGb76M7BZtldy-68" value="AbstractCollection" style="rounded=0;fontFamily=Helvetica;fontSize=11;fontColor=#ffffff;fillColor=#d80073;strokeColor=#A50040;" parent="WIyWlLk6GJQsqaUBKTNV-1" vertex="1">
          <mxGeometry x="1230" y="840" width="150" height="30" as="geometry" />
        </mxCell>
        <mxCell id="bcarhAzKGb76M7BZtldy-86" value="CharSequence" style="rounded=0;fontFamily=Helvetica;fontSize=11;fontColor=#ffffff;fillColor=#60a917;strokeColor=#2D7600;" parent="WIyWlLk6GJQsqaUBKTNV-1" vertex="1">
          <mxGeometry x="870" y="400" width="150" height="30" as="geometry" />
        </mxCell>
        <mxCell id="bcarhAzKGb76M7BZtldy-98" value="AbstractSet" style="rounded=0;fontFamily=Helvetica;fontSize=11;fontColor=#ffffff;fillColor=#d80073;strokeColor=#A50040;" parent="WIyWlLk6GJQsqaUBKTNV-1" vertex="1">
          <mxGeometry x="1330" y="720" width="150" height="30" as="geometry" />
        </mxCell>
        <mxCell id="bcarhAzKGb76M7BZtldy-99" value="Set" style="rounded=0;fontFamily=Helvetica;fontSize=11;fontColor=#ffffff;fillColor=#60a917;strokeColor=#2D7600;" parent="WIyWlLk6GJQsqaUBKTNV-1" vertex="1">
          <mxGeometry x="1430" y="840" width="150" height="30" as="geometry" />
        </mxCell>
        <mxCell id="bcarhAzKGb76M7BZtldy-32" value="Map" style="rounded=0;fontFamily=Helvetica;fontSize=11;fontColor=#ffffff;fillColor=#60a917;strokeColor=#2D7600;" parent="WIyWlLk6GJQsqaUBKTNV-1" vertex="1">
          <mxGeometry x="1120" y="520" width="150" height="30" as="geometry" />
        </mxCell>
        <mxCell id="bcarhAzKGb76M7BZtldy-88" value="HashMap" style="rounded=0;fontFamily=Helvetica;fontSize=11;fontColor=#ffffff;fillColor=#0050ef;strokeColor=#001DBC;" parent="WIyWlLk6GJQsqaUBKTNV-1" vertex="1">
          <mxGeometry x="1120" y="330" width="150" height="30" as="geometry" />
        </mxCell>
        <mxCell id="bcarhAzKGb76M7BZtldy-89" value="AbstractMap" style="rounded=0;fontFamily=Helvetica;fontSize=11;fontColor=#ffffff;fillColor=#d80073;strokeColor=#A50040;" parent="WIyWlLk6GJQsqaUBKTNV-1" vertex="1">
          <mxGeometry x="1120" y="450" width="150" height="30" as="geometry" />
        </mxCell>
        <mxCell id="bcarhAzKGb76M7BZtldy-94" value="LinkedHashMap" style="rounded=0;fontFamily=Helvetica;fontSize=11;fontColor=#ffffff;fillColor=#0050ef;strokeColor=#001DBC;" parent="WIyWlLk6GJQsqaUBKTNV-1" vertex="1">
          <mxGeometry x="870" y="330" width="150" height="30" as="geometry" />
        </mxCell>
        <mxCell id="bcarhAzKGb76M7BZtldy-97" value="HashSet" style="rounded=0;fontFamily=Helvetica;fontSize=11;fontColor=#ffffff;fillColor=#0050ef;strokeColor=#001DBC;" parent="WIyWlLk6GJQsqaUBKTNV-1" vertex="1">
          <mxGeometry x="1330" y="600" width="150" height="30" as="geometry" />
        </mxCell>
        <mxCell id="bcarhAzKGb76M7BZtldy-104" value="LinkedHashSet" style="rounded=0;fontFamily=Helvetica;fontSize=11;fontColor=#ffffff;fillColor=#0050ef;strokeColor=#001DBC;" parent="WIyWlLk6GJQsqaUBKTNV-1" vertex="1">
          <mxGeometry x="1330" y="520" width="150" height="30" as="geometry" />
        </mxCell>
        <mxCell id="bcarhAzKGb76M7BZtldy-27" value="Number" style="rounded=0;fontFamily=Helvetica;fontSize=11;fontColor=#ffffff;fillColor=#d80073;strokeColor=#A50040;" parent="WIyWlLk6GJQsqaUBKTNV-1" vertex="1">
          <mxGeometry x="470" y="580" width="150" height="30" as="geometry" />
        </mxCell>
        <mxCell id="bcarhAzKGb76M7BZtldy-76" value="Comparable" style="rounded=0;fontFamily=Helvetica;fontSize=11;fontColor=#ffffff;fillColor=#60a917;strokeColor=#2D7600;" parent="WIyWlLk6GJQsqaUBKTNV-1" vertex="1">
          <mxGeometry x="295" y="400" width="150" height="30" as="geometry" />
        </mxCell>
        <mxCell id="xo6h9skGutNDoiyW-js7-5" value="" style="group" parent="WIyWlLk6GJQsqaUBKTNV-1" vertex="1" connectable="0">
          <mxGeometry x="830" y="570" width="170" height="100" as="geometry" />
        </mxCell>
        <mxCell id="bcarhAzKGb76M7BZtldy-115" value="" style="rounded=0;fontFamily=Helvetica;fontSize=11;fontColor=#ffffff;fillColor=none;strokeColor=#2D7600;" parent="xo6h9skGutNDoiyW-js7-5" vertex="1">
          <mxGeometry width="170" height="100" as="geometry" />
        </mxCell>
        <mxCell id="bcarhAzKGb76M7BZtldy-28" value="Serializable" style="rounded=0;fontFamily=Helvetica;fontSize=11;fontColor=#ffffff;fillColor=#60a917;strokeColor=#2D7600;" parent="xo6h9skGutNDoiyW-js7-5" vertex="1">
          <mxGeometry x="10" y="10" width="150" height="30" as="geometry" />
        </mxCell>
        <mxCell id="bcarhAzKGb76M7BZtldy-59" value="Cloneable" style="rounded=0;fontFamily=Helvetica;fontSize=11;fontColor=#ffffff;fillColor=#60a917;strokeColor=#2D7600;" parent="xo6h9skGutNDoiyW-js7-5" vertex="1">
          <mxGeometry x="10" y="60" width="150" height="30" as="geometry" />
        </mxCell>
        <mxCell id="bcarhAzKGb76M7BZtldy-58" value="" style="edgeStyle=none;shape=connector;rounded=0;orthogonalLoop=1;jettySize=auto;shadow=0;labelBackgroundColor=default;fontFamily=Helvetica;fontSize=11;fontColor=default;endArrow=block;endFill=0;endSize=10;strokeColor=default;strokeWidth=1;elbow=vertical;" parent="WIyWlLk6GJQsqaUBKTNV-1" source="bcarhAzKGb76M7BZtldy-50" target="bcarhAzKGb76M7BZtldy-115" edge="1">
          <mxGeometry relative="1" as="geometry" />
        </mxCell>
        <mxCell id="bcarhAzKGb76M7BZtldy-114" style="edgeStyle=none;shape=connector;rounded=0;orthogonalLoop=1;jettySize=auto;html=0;shadow=0;labelBackgroundColor=default;fontFamily=Helvetica;fontSize=11;fontColor=default;endArrow=block;endFill=0;endSize=10;strokeColor=default;strokeWidth=1;elbow=vertical;" parent="WIyWlLk6GJQsqaUBKTNV-1" source="xo6h9skGutNDoiyW-js7-18" target="bcarhAzKGb76M7BZtldy-76" edge="1">
          <mxGeometry relative="1" as="geometry" />
        </mxCell>
        <mxCell id="bcarhAzKGb76M7BZtldy-74" style="edgeStyle=none;shape=connector;rounded=0;orthogonalLoop=1;jettySize=auto;html=0;shadow=0;labelBackgroundColor=default;fontFamily=Helvetica;fontSize=11;fontColor=default;endArrow=block;endFill=0;endSize=10;strokeColor=default;strokeWidth=1;elbow=vertical;" parent="WIyWlLk6GJQsqaUBKTNV-1" source="bcarhAzKGb76M7BZtldy-67" target="bcarhAzKGb76M7BZtldy-31" edge="1">
          <mxGeometry relative="1" as="geometry">
            <mxPoint x="1649" y="690" as="targetPoint" />
          </mxGeometry>
        </mxCell>
        <mxCell id="bcarhAzKGb76M7BZtldy-47" value="" style="edgeStyle=none;shape=connector;rounded=0;orthogonalLoop=1;jettySize=auto;shadow=0;labelBackgroundColor=default;fontFamily=Helvetica;fontSize=11;fontColor=default;endArrow=block;endFill=0;endSize=10;strokeColor=default;strokeWidth=1;elbow=vertical;" parent="WIyWlLk6GJQsqaUBKTNV-1" source="bcarhAzKGb76M7BZtldy-31" target="bcarhAzKGb76M7BZtldy-46" edge="1">
          <mxGeometry relative="1" as="geometry">
            <mxPoint x="1649" y="585" as="sourcePoint" />
          </mxGeometry>
        </mxCell>
        <mxCell id="bcarhAzKGb76M7BZtldy-72" style="edgeStyle=none;shape=connector;rounded=0;orthogonalLoop=1;jettySize=auto;html=0;shadow=0;labelBackgroundColor=default;fontFamily=Helvetica;fontSize=11;fontColor=default;endArrow=block;endFill=0;endSize=10;strokeColor=default;strokeWidth=1;elbow=vertical;" parent="WIyWlLk6GJQsqaUBKTNV-1" source="bcarhAzKGb76M7BZtldy-68" target="bcarhAzKGb76M7BZtldy-46" edge="1">
          <mxGeometry relative="1" as="geometry" />
        </mxCell>
        <mxCell id="bcarhAzKGb76M7BZtldy-175" style="shape=connector;rounded=0;orthogonalLoop=1;jettySize=auto;html=0;shadow=0;labelBackgroundColor=default;fontFamily=Helvetica;fontSize=11;fontColor=default;endArrow=block;endFill=0;endSize=10;strokeColor=default;strokeWidth=1;elbow=vertical;" parent="WIyWlLk6GJQsqaUBKTNV-1" source="bcarhAzKGb76M7BZtldy-46" target="bcarhAzKGb76M7BZtldy-48" edge="1">
          <mxGeometry relative="1" as="geometry" />
        </mxCell>
        <mxCell id="bcarhAzKGb76M7BZtldy-75" style="edgeStyle=none;shape=connector;rounded=0;orthogonalLoop=1;jettySize=auto;html=0;shadow=0;labelBackgroundColor=default;fontFamily=Helvetica;fontSize=11;fontColor=default;endArrow=block;endFill=0;endSize=10;strokeColor=default;strokeWidth=1;elbow=vertical;" parent="WIyWlLk6GJQsqaUBKTNV-1" source="bcarhAzKGb76M7BZtldy-50" target="bcarhAzKGb76M7BZtldy-67" edge="1">
          <mxGeometry relative="1" as="geometry">
            <mxPoint x="1639" y="760" as="sourcePoint" />
          </mxGeometry>
        </mxCell>
        <mxCell id="bcarhAzKGb76M7BZtldy-129" value="" style="edgeStyle=none;shape=connector;rounded=0;orthogonalLoop=1;jettySize=auto;html=0;shadow=0;labelBackgroundColor=default;fontFamily=Helvetica;fontSize=11;fontColor=default;endArrow=block;endFill=0;endSize=10;strokeColor=default;strokeWidth=1;elbow=vertical;" parent="WIyWlLk6GJQsqaUBKTNV-1" source="bcarhAzKGb76M7BZtldy-50" target="bcarhAzKGb76M7BZtldy-53" edge="1">
          <mxGeometry relative="1" as="geometry" />
        </mxCell>
        <mxCell id="bcarhAzKGb76M7BZtldy-56" value="" style="edgeStyle=none;shape=connector;rounded=0;orthogonalLoop=1;jettySize=auto;shadow=0;labelBackgroundColor=default;fontFamily=Helvetica;fontSize=11;fontColor=default;endArrow=block;endFill=0;endSize=10;strokeColor=default;strokeWidth=1;elbow=vertical;" parent="WIyWlLk6GJQsqaUBKTNV-1" source="bcarhAzKGb76M7BZtldy-51" target="bcarhAzKGb76M7BZtldy-55" edge="1">
          <mxGeometry relative="1" as="geometry" />
        </mxCell>
        <mxCell id="bcarhAzKGb76M7BZtldy-60" value="" style="edgeStyle=none;shape=connector;rounded=0;orthogonalLoop=1;jettySize=auto;shadow=0;labelBackgroundColor=default;fontFamily=Helvetica;fontSize=11;fontColor=default;endArrow=block;endFill=0;endSize=10;strokeColor=default;strokeWidth=1;elbow=vertical;" parent="WIyWlLk6GJQsqaUBKTNV-1" source="bcarhAzKGb76M7BZtldy-51" target="bcarhAzKGb76M7BZtldy-115" edge="1">
          <mxGeometry relative="1" as="geometry" />
        </mxCell>
        <mxCell id="bcarhAzKGb76M7BZtldy-63" value="" style="edgeStyle=none;shape=connector;rounded=0;orthogonalLoop=1;jettySize=auto;shadow=0;labelBackgroundColor=default;fontFamily=Helvetica;fontSize=11;fontColor=default;endArrow=block;endFill=0;endSize=10;strokeColor=default;strokeWidth=1;elbow=vertical;" parent="WIyWlLk6GJQsqaUBKTNV-1" source="bcarhAzKGb76M7BZtldy-55" target="bcarhAzKGb76M7BZtldy-62" edge="1">
          <mxGeometry relative="1" as="geometry" />
        </mxCell>
        <mxCell id="bcarhAzKGb76M7BZtldy-64" value="" style="edgeStyle=none;shape=connector;rounded=0;orthogonalLoop=1;jettySize=auto;shadow=0;labelBackgroundColor=default;fontFamily=Helvetica;fontSize=11;fontColor=default;endArrow=block;endFill=0;endSize=10;strokeColor=default;strokeWidth=1;elbow=vertical;" parent="WIyWlLk6GJQsqaUBKTNV-1" source="bcarhAzKGb76M7BZtldy-62" target="bcarhAzKGb76M7BZtldy-46" edge="1">
          <mxGeometry relative="1" as="geometry">
            <mxPoint x="1662.9523809523807" y="624.9999999999998" as="sourcePoint" />
          </mxGeometry>
        </mxCell>
        <mxCell id="bcarhAzKGb76M7BZtldy-71" style="edgeStyle=none;shape=connector;rounded=0;orthogonalLoop=1;jettySize=auto;html=0;shadow=0;labelBackgroundColor=default;fontFamily=Helvetica;fontSize=11;fontColor=default;endArrow=block;endFill=0;endSize=10;strokeColor=default;strokeWidth=1;elbow=vertical;" parent="WIyWlLk6GJQsqaUBKTNV-1" source="bcarhAzKGb76M7BZtldy-51" target="bcarhAzKGb76M7BZtldy-66" edge="1">
          <mxGeometry relative="1" as="geometry" />
        </mxCell>
        <mxCell id="bcarhAzKGb76M7BZtldy-69" style="shape=connector;rounded=0;orthogonalLoop=1;jettySize=auto;html=0;shadow=0;labelBackgroundColor=default;fontFamily=Helvetica;fontSize=11;fontColor=default;endArrow=block;endFill=0;endSize=10;strokeColor=default;strokeWidth=1;elbow=vertical;jumpStyle=arc;jumpSize=10;" parent="WIyWlLk6GJQsqaUBKTNV-1" source="bcarhAzKGb76M7BZtldy-66" target="bcarhAzKGb76M7BZtldy-67" edge="1">
          <mxGeometry relative="1" as="geometry" />
        </mxCell>
        <mxCell id="bcarhAzKGb76M7BZtldy-70" style="edgeStyle=none;shape=connector;rounded=0;orthogonalLoop=1;jettySize=auto;html=0;shadow=0;labelBackgroundColor=default;fontFamily=Helvetica;fontSize=11;fontColor=default;endArrow=block;endFill=0;endSize=10;strokeColor=default;strokeWidth=1;elbow=vertical;" parent="WIyWlLk6GJQsqaUBKTNV-1" source="bcarhAzKGb76M7BZtldy-67" target="bcarhAzKGb76M7BZtldy-68" edge="1">
          <mxGeometry relative="1" as="geometry" />
        </mxCell>
        <mxCell id="bcarhAzKGb76M7BZtldy-85" style="edgeStyle=none;shape=connector;rounded=0;orthogonalLoop=1;jettySize=auto;html=0;shadow=0;labelBackgroundColor=default;fontFamily=Helvetica;fontSize=11;fontColor=default;endArrow=block;endFill=0;endSize=10;strokeColor=default;strokeWidth=1;elbow=vertical;" parent="WIyWlLk6GJQsqaUBKTNV-1" source="bcarhAzKGb76M7BZtldy-30" target="bcarhAzKGb76M7BZtldy-76" edge="1">
          <mxGeometry relative="1" as="geometry" />
        </mxCell>
        <mxCell id="bcarhAzKGb76M7BZtldy-112" style="edgeStyle=none;shape=connector;rounded=0;orthogonalLoop=1;jettySize=auto;html=0;shadow=0;labelBackgroundColor=default;fontFamily=Helvetica;fontSize=11;fontColor=default;endArrow=block;endFill=0;endSize=10;strokeColor=default;strokeWidth=1;elbow=vertical;" parent="WIyWlLk6GJQsqaUBKTNV-1" source="bcarhAzKGb76M7BZtldy-88" target="bcarhAzKGb76M7BZtldy-115" edge="1">
          <mxGeometry relative="1" as="geometry" />
        </mxCell>
        <mxCell id="bcarhAzKGb76M7BZtldy-176" style="shape=connector;rounded=0;orthogonalLoop=1;jettySize=auto;html=0;shadow=0;labelBackgroundColor=default;fontFamily=Helvetica;fontSize=11;fontColor=default;endArrow=block;endFill=0;endSize=10;strokeColor=default;strokeWidth=1;elbow=vertical;" parent="WIyWlLk6GJQsqaUBKTNV-1" source="bcarhAzKGb76M7BZtldy-98" target="bcarhAzKGb76M7BZtldy-68" edge="1">
          <mxGeometry relative="1" as="geometry" />
        </mxCell>
        <mxCell id="bcarhAzKGb76M7BZtldy-107" style="edgeStyle=none;shape=connector;rounded=0;orthogonalLoop=1;jettySize=auto;html=0;shadow=0;labelBackgroundColor=default;fontFamily=Helvetica;fontSize=11;fontColor=default;endArrow=block;endFill=0;endSize=10;strokeColor=default;strokeWidth=1;elbow=vertical;" parent="WIyWlLk6GJQsqaUBKTNV-1" source="bcarhAzKGb76M7BZtldy-97" target="bcarhAzKGb76M7BZtldy-115" edge="1">
          <mxGeometry relative="1" as="geometry">
            <mxPoint x="1449.6341463414633" y="390" as="sourcePoint" />
            <mxPoint x="1461.6666666666665" y="445" as="targetPoint" />
          </mxGeometry>
        </mxCell>
        <mxCell id="bcarhAzKGb76M7BZtldy-100" style="edgeStyle=none;shape=connector;rounded=0;orthogonalLoop=1;jettySize=auto;html=0;shadow=0;labelBackgroundColor=default;fontFamily=Helvetica;fontSize=11;fontColor=default;endArrow=block;endFill=0;endSize=10;strokeColor=default;strokeWidth=1;elbow=vertical;" parent="WIyWlLk6GJQsqaUBKTNV-1" source="bcarhAzKGb76M7BZtldy-97" target="bcarhAzKGb76M7BZtldy-98" edge="1">
          <mxGeometry relative="1" as="geometry" />
        </mxCell>
        <mxCell id="bcarhAzKGb76M7BZtldy-109" style="edgeStyle=none;shape=connector;rounded=0;orthogonalLoop=1;jettySize=auto;html=0;shadow=0;labelBackgroundColor=default;fontFamily=Helvetica;fontSize=11;fontColor=default;endArrow=block;endFill=0;endSize=10;strokeColor=default;strokeWidth=1;elbow=vertical;" parent="WIyWlLk6GJQsqaUBKTNV-1" source="bcarhAzKGb76M7BZtldy-98" target="bcarhAzKGb76M7BZtldy-99" edge="1">
          <mxGeometry relative="1" as="geometry" />
        </mxCell>
        <mxCell id="bcarhAzKGb76M7BZtldy-91" style="edgeStyle=none;shape=connector;rounded=0;orthogonalLoop=1;jettySize=auto;html=0;shadow=0;labelBackgroundColor=default;fontFamily=Helvetica;fontSize=11;fontColor=default;endArrow=block;endFill=0;endSize=10;strokeColor=default;strokeWidth=1;elbow=vertical;" parent="WIyWlLk6GJQsqaUBKTNV-1" source="bcarhAzKGb76M7BZtldy-89" target="bcarhAzKGb76M7BZtldy-32" edge="1">
          <mxGeometry relative="1" as="geometry" />
        </mxCell>
        <mxCell id="bcarhAzKGb76M7BZtldy-90" style="edgeStyle=none;shape=connector;rounded=0;orthogonalLoop=1;jettySize=auto;html=0;shadow=0;labelBackgroundColor=default;fontFamily=Helvetica;fontSize=11;fontColor=default;endArrow=block;endFill=0;endSize=10;strokeColor=default;strokeWidth=1;elbow=vertical;" parent="WIyWlLk6GJQsqaUBKTNV-1" source="bcarhAzKGb76M7BZtldy-88" target="bcarhAzKGb76M7BZtldy-89" edge="1">
          <mxGeometry relative="1" as="geometry" />
        </mxCell>
        <mxCell id="bcarhAzKGb76M7BZtldy-95" style="edgeStyle=none;shape=connector;rounded=0;orthogonalLoop=1;jettySize=auto;html=0;shadow=0;labelBackgroundColor=default;fontFamily=Helvetica;fontSize=11;fontColor=default;endArrow=block;endFill=0;endSize=10;strokeColor=default;strokeWidth=1;elbow=vertical;" parent="WIyWlLk6GJQsqaUBKTNV-1" source="bcarhAzKGb76M7BZtldy-94" target="bcarhAzKGb76M7BZtldy-88" edge="1">
          <mxGeometry relative="1" as="geometry" />
        </mxCell>
        <mxCell id="bcarhAzKGb76M7BZtldy-105" style="edgeStyle=none;shape=connector;rounded=0;orthogonalLoop=1;jettySize=auto;html=0;shadow=0;labelBackgroundColor=default;fontFamily=Helvetica;fontSize=11;fontColor=default;endArrow=block;endFill=0;endSize=10;strokeColor=default;strokeWidth=1;elbow=vertical;" parent="WIyWlLk6GJQsqaUBKTNV-1" source="bcarhAzKGb76M7BZtldy-104" target="bcarhAzKGb76M7BZtldy-97" edge="1">
          <mxGeometry relative="1" as="geometry" />
        </mxCell>
        <mxCell id="xo6h9skGutNDoiyW-js7-3" style="edgeStyle=none;shape=connector;rounded=0;orthogonalLoop=1;jettySize=auto;html=0;shadow=0;labelBackgroundColor=default;fontFamily=Helvetica;fontSize=11;fontColor=default;endArrow=block;endFill=0;endSize=10;strokeColor=default;strokeWidth=1;elbow=vertical;" parent="WIyWlLk6GJQsqaUBKTNV-1" source="xo6h9skGutNDoiyW-js7-0" target="bcarhAzKGb76M7BZtldy-76" edge="1">
          <mxGeometry relative="1" as="geometry" />
        </mxCell>
        <mxCell id="xo6h9skGutNDoiyW-js7-4" style="edgeStyle=none;shape=connector;rounded=0;orthogonalLoop=1;jettySize=auto;html=0;shadow=0;labelBackgroundColor=default;fontFamily=Helvetica;fontSize=11;fontColor=default;endArrow=block;endFill=0;endSize=10;strokeColor=default;strokeWidth=1;elbow=vertical;" parent="WIyWlLk6GJQsqaUBKTNV-1" source="xo6h9skGutNDoiyW-js7-0" target="bcarhAzKGb76M7BZtldy-27" edge="1">
          <mxGeometry relative="1" as="geometry" />
        </mxCell>
        <mxCell id="bcarhAzKGb76M7BZtldy-41" value="" style="edgeStyle=none;shape=connector;rounded=0;orthogonalLoop=1;jettySize=auto;shadow=0;labelBackgroundColor=default;fontFamily=Helvetica;fontSize=11;fontColor=default;endArrow=block;endFill=0;endSize=10;strokeColor=default;strokeWidth=1;elbow=vertical;" parent="WIyWlLk6GJQsqaUBKTNV-1" source="bcarhAzKGb76M7BZtldy-27" target="bcarhAzKGb76M7BZtldy-28" edge="1">
          <mxGeometry relative="1" as="geometry" />
        </mxCell>
        <mxCell id="bcarhAzKGb76M7BZtldy-42" value="" style="edgeStyle=none;shape=connector;rounded=0;orthogonalLoop=1;jettySize=auto;shadow=0;labelBackgroundColor=default;fontFamily=Helvetica;fontSize=11;fontColor=default;endArrow=block;endFill=0;endSize=10;strokeColor=default;strokeWidth=1;elbow=vertical;" parent="WIyWlLk6GJQsqaUBKTNV-1" source="xo6h9skGutNDoiyW-js7-18" target="bcarhAzKGb76M7BZtldy-28" edge="1">
          <mxGeometry relative="1" as="geometry" />
        </mxCell>
        <mxCell id="bcarhAzKGb76M7BZtldy-43" value="" style="edgeStyle=none;shape=connector;rounded=0;orthogonalLoop=1;jettySize=auto;shadow=0;labelBackgroundColor=default;fontFamily=Helvetica;fontSize=11;fontColor=default;endArrow=block;endFill=0;endSize=10;strokeColor=default;strokeWidth=1;elbow=vertical;" parent="WIyWlLk6GJQsqaUBKTNV-1" source="bcarhAzKGb76M7BZtldy-30" target="bcarhAzKGb76M7BZtldy-28" edge="1">
          <mxGeometry relative="1" as="geometry" />
        </mxCell>
        <mxCell id="bcarhAzKGb76M7BZtldy-87" style="edgeStyle=none;shape=connector;rounded=0;orthogonalLoop=1;jettySize=auto;html=0;shadow=0;labelBackgroundColor=default;fontFamily=Helvetica;fontSize=11;fontColor=default;endArrow=block;endFill=0;endSize=10;strokeColor=default;strokeWidth=1;elbow=vertical;" parent="WIyWlLk6GJQsqaUBKTNV-1" source="bcarhAzKGb76M7BZtldy-30" target="bcarhAzKGb76M7BZtldy-86" edge="1">
          <mxGeometry relative="1" as="geometry" />
        </mxCell>
        <mxCell id="xo6h9skGutNDoiyW-js7-6" value="" style="group" parent="WIyWlLk6GJQsqaUBKTNV-1" vertex="1" connectable="0">
          <mxGeometry x="30" y="680" width="680" height="90" as="geometry" />
        </mxCell>
        <mxCell id="xo6h9skGutNDoiyW-js7-0" value="" style="rounded=0;whiteSpace=wrap;html=1;fillColor=none;fontColor=#ffffff;strokeColor=#001DBC;" parent="xo6h9skGutNDoiyW-js7-6" vertex="1">
          <mxGeometry width="680" height="90" as="geometry" />
        </mxCell>
        <mxCell id="bcarhAzKGb76M7BZtldy-19" value="Byte" style="rounded=0;fontFamily=Helvetica;fontSize=11;fontColor=#ffffff;fillColor=#0050ef;strokeColor=#001DBC;" parent="xo6h9skGutNDoiyW-js7-6" vertex="1">
          <mxGeometry x="10" y="10" width="150" height="30" as="geometry" />
        </mxCell>
        <mxCell id="bcarhAzKGb76M7BZtldy-20" value="Short" style="rounded=0;fontFamily=Helvetica;fontSize=11;fontColor=#ffffff;fillColor=#0050ef;strokeColor=#001DBC;" parent="xo6h9skGutNDoiyW-js7-6" vertex="1">
          <mxGeometry x="180" y="10" width="150" height="30" as="geometry" />
        </mxCell>
        <mxCell id="bcarhAzKGb76M7BZtldy-21" value="Integer" style="rounded=0;fontFamily=Helvetica;fontSize=11;fontColor=#ffffff;fillColor=#0050ef;strokeColor=#001DBC;" parent="xo6h9skGutNDoiyW-js7-6" vertex="1">
          <mxGeometry x="350" y="10" width="150" height="30" as="geometry" />
        </mxCell>
        <mxCell id="bcarhAzKGb76M7BZtldy-22" value="Long" style="rounded=0;fontFamily=Helvetica;fontSize=11;fontColor=#ffffff;fillColor=#0050ef;strokeColor=#001DBC;" parent="xo6h9skGutNDoiyW-js7-6" vertex="1">
          <mxGeometry x="520" y="10" width="150" height="30" as="geometry" />
        </mxCell>
        <mxCell id="bcarhAzKGb76M7BZtldy-23" value="Float" style="rounded=0;fontFamily=Helvetica;fontSize=11;fontColor=#ffffff;fillColor=#0050ef;strokeColor=#001DBC;" parent="xo6h9skGutNDoiyW-js7-6" vertex="1">
          <mxGeometry x="10" y="50" width="150" height="30" as="geometry" />
        </mxCell>
        <mxCell id="bcarhAzKGb76M7BZtldy-24" value="Double" style="rounded=0;fontFamily=Helvetica;fontSize=11;fontColor=#ffffff;fillColor=#0050ef;strokeColor=#001DBC;" parent="xo6h9skGutNDoiyW-js7-6" vertex="1">
          <mxGeometry x="180" y="50" width="150" height="30" as="geometry" />
        </mxCell>
        <mxCell id="bcarhAzKGb76M7BZtldy-25" value="BigInteger" style="rounded=0;fontFamily=Helvetica;fontSize=11;fontColor=#ffffff;fillColor=#0050ef;strokeColor=#001DBC;" parent="xo6h9skGutNDoiyW-js7-6" vertex="1">
          <mxGeometry x="350" y="50" width="150" height="30" as="geometry" />
        </mxCell>
        <mxCell id="bcarhAzKGb76M7BZtldy-26" value="BigDecimal" style="rounded=0;fontFamily=Helvetica;fontSize=11;fontColor=#ffffff;fillColor=#0050ef;strokeColor=#001DBC;" parent="xo6h9skGutNDoiyW-js7-6" vertex="1">
          <mxGeometry x="520" y="50" width="150" height="30" as="geometry" />
        </mxCell>
        <mxCell id="xo6h9skGutNDoiyW-js7-19" value="" style="group" parent="WIyWlLk6GJQsqaUBKTNV-1" vertex="1" connectable="0">
          <mxGeometry x="540" y="460" width="170" height="90" as="geometry" />
        </mxCell>
        <mxCell id="xo6h9skGutNDoiyW-js7-18" value="" style="rounded=0;fontFamily=Helvetica;fontSize=11;fontColor=#ffffff;fillColor=none;strokeColor=#001DBC;" parent="xo6h9skGutNDoiyW-js7-19" vertex="1">
          <mxGeometry width="170" height="90" as="geometry" />
        </mxCell>
        <mxCell id="bcarhAzKGb76M7BZtldy-29" value="Boolean" style="rounded=0;fontFamily=Helvetica;fontSize=11;fontColor=#ffffff;fillColor=#0050ef;strokeColor=#001DBC;" parent="xo6h9skGutNDoiyW-js7-19" vertex="1">
          <mxGeometry x="10" y="10" width="150" height="30" as="geometry" />
        </mxCell>
        <mxCell id="xo6h9skGutNDoiyW-js7-7" value="Character" style="rounded=0;fontFamily=Helvetica;fontSize=11;fontColor=#ffffff;fillColor=#0050ef;strokeColor=#001DBC;" parent="xo6h9skGutNDoiyW-js7-19" vertex="1">
          <mxGeometry x="10" y="50" width="150" height="30" as="geometry" />
        </mxCell>
      </root>
    </mxGraphModel>
  </diagram>
</mxfile>
